<svg width="846" height="846" viewBox="0 0 846 846" fill="none" xmlns="http://www.w3.org/2000/svg">
<circle cx="423" cy="423" r="423" fill="#0099FF"/>
<path fill-rule="evenodd" clip-rule="evenodd" d="M447.684 170.958C441.519 168.523 432.556 170.944 414.628 175.785L238.713 223.292C220.891 228.105 211.979 230.511 207.882 235.695C204.461 240.024 202.98 245.573 203.789 251.03C204.758 257.567 211.285 264.093 224.339 277.147L253.224 306.032L147.101 412.155C141.633 417.622 141.633 426.487 147.101 431.954L197.957 482.811C203.425 488.278 212.289 488.278 217.756 482.811L323.88 376.688L352.748 405.556C365.801 418.61 372.328 425.136 378.865 426.106C384.322 426.915 389.871 425.434 394.2 422.013C399.384 417.915 401.79 409.004 406.603 391.182L454.109 215.267L454.11 215.266C458.951 197.339 461.372 188.375 458.936 182.211C456.904 177.065 452.83 172.991 447.684 170.958Z" fill="white"/>
<path fill-rule="evenodd" clip-rule="evenodd" d="M387.048 663.789C384.613 657.625 387.034 648.661 391.875 630.734L439.382 454.818C444.195 436.996 446.601 428.085 451.785 423.988C456.113 420.567 461.663 419.085 467.12 419.895C473.656 420.864 480.183 427.391 493.237 440.444L522.122 469.329L628.241 363.21C633.708 357.743 642.573 357.743 648.04 363.21L698.897 414.067C704.364 419.534 704.364 428.399 698.897 433.866L592.778 539.985L621.646 568.853C634.7 581.907 641.226 588.434 642.196 594.97C643.005 600.427 641.524 605.977 638.103 610.305C634.005 615.489 625.094 617.896 607.272 622.709L431.357 670.215L431.356 670.215C413.429 675.056 404.465 677.477 398.301 675.042C393.155 673.009 389.081 668.935 387.048 663.789Z" fill="white"/>
</svg>
